<svg width="20" height="22" viewBox="0 0 20 22" fill="none" xmlns="http://www.w3.org/2000/svg">
<path fill-rule="evenodd" clip-rule="evenodd" d="M0 10.641C0 4.87253 4.579 0 10 0C15.421 0 20 4.87253 20 10.641C20 14.0355 18.408 17.1086 16 19.073V19.1538H15.898C14.23 20.4787 12.187 21.2821 10 21.2821C7.813 21.2821 5.77 20.4787 4.102 19.1538H4V19.073C1.592 17.1086 0 14.0344 0 10.641ZM7.12347 16.2126C6.59154 16.668 6.22136 17.3027 6.074 18.0121C7.242 18.7325 8.584 19.1538 10 19.1538C11.416 19.1538 12.758 18.7325 13.926 18.0121C13.7785 17.3028 13.4082 16.6682 12.8764 16.2129C12.3445 15.7575 11.6827 15.5086 11 15.5072H9C8.3173 15.5084 7.6554 15.7573 7.12347 16.2126ZM13.7677 14.2714C14.5877 14.8521 15.2286 15.6773 15.61 16.6436C17.077 15.0911 18 12.9565 18 10.641C18 6.02601 14.337 2.12821 10 2.12821C5.663 2.12821 2 6.02601 2 10.641C2 12.9565 2.923 15.0911 4.39 16.6436C4.77144 15.6773 5.41227 14.8521 6.23227 14.2714C7.05227 13.6907 8.01501 13.3803 9 13.379H11C11.985 13.3803 12.9477 13.6907 13.7677 14.2714ZM6 8.51282C6 6.08667 7.72 4.25641 10 4.25641C12.28 4.25641 14 6.08667 14 8.51282C14 10.939 12.28 12.7692 10 12.7692C7.72 12.7692 6 10.939 6 8.51282ZM8 8.51282C8 9.76633 8.822 10.641 10 10.641C11.178 10.641 12 9.76633 12 8.51282C12 7.25931 11.178 6.38462 10 6.38462C8.822 6.38462 8 7.25931 8 8.51282Z" fill="#9B9B9B"/>
</svg>
